<?xml version="1.0" encoding="UTF-8"?> <svg xmlns="http://www.w3.org/2000/svg" width="657" height="113" viewBox="0 0 657 113" fill="none"><path fill-rule="evenodd" clip-rule="evenodd" d="M165.301 21.0738C183.015 21.0738 191.429 32.1538 191.871 44.5378H138.952C139.838 33.2398 149.138 21.0738 165.301 21.0738ZM167.736 112.321C193.642 112.321 210.692 97.3308 216.449 78.8638L194.75 72.1288C191.207 82.5578 183.236 90.5958 167.736 90.5958C151.794 90.5958 138.952 79.0808 138.288 63.0048H217.113C217.335 62.5698 217.777 59.0938 217.777 54.9658C217.777 21.5088 198.293 -0.000183105 165.079 -0.000183105C137.845 -0.000183105 112.602 22.1608 112.602 55.6178C112.602 91.4648 138.509 112.321 167.736 112.321ZM480.74 22.8124C496.682 22.8124 510.853 34.1094 510.853 56.0524C510.853 78.2114 496.682 89.7264 480.74 89.7264C465.019 89.7264 450.627 77.9944 450.627 56.0524C450.627 34.1094 465.019 22.8124 480.74 22.8124ZM480.74 112.321C513.068 112.321 536.759 88.6404 536.759 56.0524C536.759 23.6814 513.068 0.000416895 480.74 0.000416895C448.634 0.000416895 424.942 23.6814 424.942 56.0524C424.942 88.6404 448.634 112.321 480.74 112.321ZM603.699 21.0738C621.413 21.0738 629.827 32.1538 630.269 44.5378H577.35C578.236 33.2398 587.536 21.0738 603.699 21.0738ZM606.134 112.321C632.04 112.321 649.09 97.3308 654.847 78.8638L633.148 72.1288C629.605 82.5578 621.634 90.5958 606.134 90.5958C590.192 90.5958 577.35 79.0808 576.686 63.0048H655.511C655.733 62.5698 656.175 59.0938 656.175 54.9658C656.175 21.5088 636.691 -0.000183105 603.477 -0.000183105C576.243 -0.000183105 551 22.1608 551 55.6178C551 91.4648 576.907 112.321 606.134 112.321ZM236.441 39.1685C236.441 15.6775 247.842 3.25952 269.653 3.25952H298.591V27.5895H275.761C263.798 27.5895 261.771 29.3765 261.771 43.2585V109.063H236.441V39.1685ZM61.0501 109.062H49.9101L0.000106812 3.25922H28.2401L55.6971 63.7592L82.5041 3.25922H109.444L61.0501 109.062ZM362.41 109.062H373.55L421.944 3.25922H395.004L368.197 63.7592L340.74 3.25922H312.5L362.41 109.062Z" fill="#0A3EEA"></path></svg> 